<svg width="22" height="22" viewBox="0 0 22 22" fill="none" xmlns="http://www.w3.org/2000/svg">
<g clip-path="url(#clip0_4_411)">
<path d="M0.759943 12.8735H2.55193V20.0414C2.55193 20.4638 2.89752 20.8094 3.31991 20.8094H8.56783C8.99022 20.8094 9.33582 20.4638 9.33582 20.0414V14.7935H12.5357V20.0414C12.5357 20.4638 12.8813 20.8094 13.3037 20.8094H18.2956C18.718 20.8094 19.0636 20.4638 19.0636 20.0414V12.8735H21.2396C21.5468 12.8735 21.8284 12.6815 21.9436 12.3999C22.0588 12.1184 21.9948 11.7855 21.7772 11.5679L11.7678 1.41773C11.4733 1.12332 10.987 1.11054 10.6926 1.40495L0.235182 11.5552C0.00478666 11.7728 -0.0592272 12.1055 0.0559707 12.3999C0.171169 12.6943 0.452748 12.8735 0.759943 12.8735ZM11.2046 3.04329L19.3964 11.3375H18.2956C17.8732 11.3375 17.5276 11.6831 17.5276 12.1055V19.2734H14.0717V14.0255C14.0717 13.6031 13.7261 13.2575 13.3037 13.2575H8.56783C8.14544 13.2575 7.79985 13.6031 7.79985 14.0255V19.2734H4.0879V12.1055C4.0879 11.6831 3.7423 11.3375 3.31991 11.3375H2.65434L11.2046 3.04329Z" fill="black"/>
</g>
<defs>
<clipPath id="clip0_4_411">
<rect width="22" height="22" fill="white"/>
</clipPath>
</defs>
</svg>
