<svg width="22" height="22" viewBox="0 0 22 22" fill="none" xmlns="http://www.w3.org/2000/svg">
<g clip-path="url(#clip0_4_242)">
<path d="M16.6832 1.91191C15.3942 0.63729 13.8332 0 12 0C10.1669 0 8.60587 0.63729 7.31694 1.91191C6.02801 3.18653 5.38354 4.72607 5.38354 6.53057C5.38354 7.61899 5.93491 9.43784 7.03767 11.987C8.14043 14.5363 9.24316 16.8564 10.3459 18.9473C11.4487 21.0382 12 22.055 12 21.9977C12.1719 21.6826 12.4082 21.253 12.709 20.7088C13.0097 20.1646 13.5396 19.1406 14.2986 17.6368C15.0577 16.1331 15.7236 14.7511 16.2965 13.4908C16.8694 12.2306 17.3992 10.9272 17.8862 9.58104C18.3731 8.23484 18.6165 7.218 18.6165 6.53057C18.6165 4.72607 17.9721 3.18653 16.6832 1.91191ZM13.4179 7.90543C13.0169 8.30642 12.5371 8.50693 11.9786 8.50693C11.42 8.50693 10.9402 8.30642 10.5393 7.90543C10.1383 7.50445 9.93776 7.02466 9.93776 6.46613C9.93776 5.90759 10.1383 5.43498 10.5393 5.04831C10.9402 4.66163 11.42 4.46829 11.9786 4.46829C12.5371 4.46829 13.0169 4.66163 13.4179 5.04831C13.8189 5.43498 14.0194 5.90759 14.0194 6.46613C14.0194 7.02466 13.8189 7.50445 13.4179 7.90543Z" fill="#292929"/>
</g>
<defs>
<clipPath id="clip0_4_242">
<rect width="22" height="22" fill="white"/>
</clipPath>
</defs>
</svg>
