<svg width="24" height="25" viewBox="0 0 24 25" fill="none" xmlns="http://www.w3.org/2000/svg">
<path d="M9.00798 18.0293C7.27129 18.0293 5.8584 19.3955 5.8584 21.0747C5.8584 22.754 7.27129 24.1201 9.00798 24.1201C10.7447 24.1201 12.1576 22.754 12.1576 21.0747C12.1576 19.3955 10.7446 18.0293 9.00798 18.0293ZM9.00798 22.2929C8.31318 22.2929 7.74817 21.7465 7.74817 21.0747C7.74817 20.4029 8.31318 19.8566 9.00798 19.8566C9.70245 19.8566 10.2678 20.4029 10.2678 21.0747C10.2678 21.7465 9.70279 22.2929 9.00798 22.2929Z" fill="#292929"/>
<path d="M18.3307 18.0293C16.594 18.0293 15.1812 19.3955 15.1812 21.0747C15.1812 22.754 16.594 24.1201 18.3307 24.1201C20.0674 24.1201 21.4803 22.754 21.4803 21.0747C21.4803 19.3955 20.0674 18.0293 18.3307 18.0293ZM18.3307 22.2929C17.6359 22.2929 17.0709 21.7465 17.0709 21.0747C17.0709 20.4029 17.6359 19.8566 18.3307 19.8566C19.0255 19.8566 19.5906 20.4029 19.5906 21.0747C19.5906 21.7465 19.0255 22.2929 18.3307 22.2929Z" fill="#292929"/>
<path d="M23.7946 5.94866C23.6151 5.73059 23.343 5.60363 23.0551 5.60363H6.51041L5.65152 1.40645C5.57625 1.03886 5.27642 0.752906 4.89499 0.685305L1.11549 0.0153197C0.6012 -0.0763546 0.109854 0.252891 0.015677 0.749279C-0.0784998 1.24567 0.261326 1.72166 0.774742 1.81272L3.92243 2.37063L6.69531 15.9224C6.78286 16.3503 7.17121 16.6587 7.62221 16.6587H20.8504C21.2904 16.6587 21.6718 16.3655 21.771 15.9503L23.9757 6.7228C24.0406 6.45146 23.9738 6.1664 23.7946 5.94866ZM20.0989 14.8315H8.39824L6.88424 7.43118H21.8667L20.0989 14.8315Z" fill="#292929"/>
</svg>
