<svg width="22" height="22" viewBox="0 0 22 22" fill="none" xmlns="http://www.w3.org/2000/svg">
<path d="M17.7392 3.91162H4.19747C3.84098 3.91162 3.55351 4.1999 3.55351 4.55639C3.55351 4.91288 3.84098 5.19953 4.19747 5.19953H17.7392C18.6422 5.19953 19.3771 5.93606 19.3771 6.83905V6.90158H4.19747C3.84098 6.90158 3.55351 7.18823 3.55351 7.54472C3.55351 7.9004 3.84098 8.18868 4.19747 8.18868H19.3771V15.1617C19.3771 16.0639 18.6422 16.8004 17.7392 16.8004H4.25999C3.357 16.8004 2.62209 16.0639 2.62209 15.1617V6.7749C2.62209 6.41841 2.33382 6.13014 1.97814 6.13014C1.62165 6.13014 1.33337 6.41841 1.33337 6.7749V15.1617C1.33337 16.7761 2.64646 18.0884 4.25999 18.0884H17.7392C19.3527 18.0884 20.6666 16.7761 20.6666 15.1617V6.83905C20.6666 5.2247 19.3527 3.91162 17.7392 3.91162ZM17.3632 13.1105C17.7189 13.1105 18.008 12.8222 18.008 12.4665C18.008 12.1092 17.7189 11.8226 17.3632 11.8226H10.9683C10.6118 11.8226 10.3236 12.1092 10.3236 12.4665C10.3236 12.8222 10.6118 13.1105 10.9683 13.1105H17.3632ZM5.15731 11.4677H7.15494V13.4646H5.15731V11.4677ZM7.7989 14.7541C8.15539 14.7541 8.44367 14.4658 8.44367 14.1085V10.823C8.44367 10.4673 8.15539 10.1782 7.7989 10.1782H4.51335C4.15686 10.1782 3.8694 10.4673 3.8694 10.823V14.1085C3.8694 14.4658 4.15686 14.7541 4.51335 14.7541H7.7989Z" fill="black"/>
</svg>
