<?xml version="1.0" encoding="UTF-8"?>
<svg width="13px" height="16px" viewBox="0 0 13 16" version="1.1" xmlns="http://www.w3.org/2000/svg" xmlns:xlink="http://www.w3.org/1999/xlink">
    <g id="All-1600" stroke="none" stroke-width="1" fill="none" fill-rule="evenodd">
        <g id="Main_Catalog_1600" transform="translate(-378.000000, -356.000000)">
            <g id="Desktop-/-Navigation-/-Opened" transform="translate(0.000000, 136.000000)">
                <g id="catalog" transform="translate(100.000000, 136.000000)">
                    <g id="Group-2" transform="translate(24.000000, 84.000000)">
                        <g id="icon_fire" transform="translate(252.000000, 0.000000)">
                            <g id="Location-arrow" transform="translate(0.000000, -0.000000)">
                                <rect id="bound" x="0" y="0" width="16" height="16"></rect>
                                <g id="fire" transform="translate(2.000000, 0.000000)" fill="#F21827" fill-rule="nonzero">
                                    <path d="M12.4089907,9.36778168 C12.2189213,6.98156288 11.0667731,5.48621909 10.0503472,4.16665656 C9.1091713,2.94503154 8.2962963,1.89009401 8.2962963,0.333906478 C8.2962963,0.208906475 8.2237037,0.0946564722 8.10859259,0.0373752209 C7.993125,-0.0202497804 7.85438889,-0.0108122802 7.7494213,0.0627502215 C6.22290278,1.11606274 4.94922685,2.89134403 4.50430556,4.58521907 C4.19543056,5.76450035 4.15456481,7.09025038 4.1488287,7.96584415 C2.73910648,7.67550039 2.41976389,5.64212535 2.41639352,5.6199691 C2.40051389,5.51450034 2.33368981,5.42271909 2.23646759,5.37259409 C2.13824074,5.32312534 2.02277315,5.31953159 1.92318519,5.36706284 C1.84926389,5.40156284 0.108694444,6.25437536 0.0074212963,9.65940669 C0.000324074074,9.77268794 0,9.88631294 0,9.99990669 C0,13.307938 2.79141204,15.9995006 6.22222222,15.9995006 C6.2269537,15.9998131 6.23200926,16.0004693 6.23606019,15.9995006 C6.2374213,15.9995006 6.23875,15.9995006 6.24043519,15.9995006 C9.66281944,15.9900318 12.4444444,13.3020943 12.4444444,9.99990669 C12.4444444,9.83356294 12.4089907,9.36778168 12.4089907,9.36778168 Z M6.22222222,14.4439867 C5.0785,14.4439867 4.148138,13.4883304 4.148138,12.3136116 C4.148138,12.2735804 4.14782407,12.2332054 4.15083796,12.1837366 C4.16467593,11.6883304 4.26225463,11.3501429 4.36926389,11.1252053 C4.56980093,11.5405491 4.92829167,11.9223616 5.51062037,11.9223616 C5.70169444,11.9223616 5.85631019,11.7732679 5.85631019,11.5890491 C5.85631019,11.1144866 5.8664537,10.5669866 5.98898611,10.0728616 C6.09803704,9.63473657 6.358625,9.16861156 6.68879167,8.7949553 C6.83562963,9.27995531 7.12191667,9.67248657 7.40143056,10.0556116 C7.80146759,10.6037366 8.21498611,11.1704554 8.2875787,12.1368616 C8.2919537,12.1941429 8.29636111,12.2517679 8.29636111,12.3136116 C8.2962963,13.4882992 7.36594444,14.4439867 6.22222222,14.4439867 Z" id="Shape"></path>
                                </g>
                            </g>
                        </g>
                    </g>
                </g>
            </g>
        </g>
    </g>
</svg>