<svg width="58px" height="16px" viewBox="0 0 58 16" version="1.1" xmlns="http://www.w3.org/2000/svg" xmlns:xlink="http://www.w3.org/1999/xlink">
    <defs>
        <linearGradient x1="-0.0169458128%" y1="50.0304455%" x2="99.9698522%" y2="50.0304455%" id="linearGradient-1-mir">
            <stop stop-color="#02AFFF" offset="0%"></stop>
            <stop stop-color="#1F5BDE" offset="100%"></stop>
        </linearGradient>
    </defs>
    <g id="Symbols" stroke="none" stroke-width="1" fill="none" fill-rule="evenodd">
        <g id="Desktop-/-Footer" transform="translate(-928.000000, -336.000000)" fill-rule="nonzero">
            <g id="Group-4">
                <g id="Group-104" transform="translate(820.000000, 336.000000)">
                    <g id="Group-103">
                        <g id="footer__icon-mir" transform="translate(108.000000, 0.000000)">
                            <path d="M41.3,7.55918367 L41.3,15.9183673 L46.5,15.9183673 L46.5,11.2163265 L51.7333333,11.2163265 C54.4666667,11.2163265 56.8,9.69795918 57.7,7.55918367 L41.3,7.55918367 Z" id="Path" fill="#006848"></path>
                            <path d="M41.0666667,-3.55271368e-15 C41.0833333,0.424489796 41.15,0.848979592 41.25,1.24081633 C41.2666667,1.32244898 41.3,1.42040816 41.3166667,1.50204082 C41.3333333,1.53469388 41.3333333,1.56734694 41.35,1.61632653 C42.2833333,4.50612245 45.0333333,6.59591837 48.2833333,6.59591837 L57.8833333,6.59591837 C57.95,6.26938776 57.9833333,5.94285714 57.9833333,5.6 C57.9833333,3.96734694 57.2666667,2.49795918 56.1166667,1.46938776 C55.1,0.555102041 53.75,-3.55271368e-15 52.25,-3.55271368e-15 L41.0666667,-3.55271368e-15 Z" id="Path" fill="url('#linearGradient-1-mir')"></path>
                            <path d="M32.0833333,1.68163265 L28.45,9.40408163 L28.0833333,9.40408163 L28.0833333,0 L22.9166667,0 L22.9166667,15.9183673 L27.3,15.9183673 C28.45,15.9183673 29.5,15.2653061 29.9833333,14.2367347 L33.6166667,6.51428571 L33.9833333,6.51428571 L33.9833333,15.9183673 L39.15,15.9183673 L39.15,0 L34.7666667,0 C33.6166667,0 32.5666667,0.653061224 32.0833333,1.68163265" id="Path" fill="#006848"></path>
                            <path d="M8,2.08979592 L10.1666667,9.40408163 L10.5333333,9.40408163 L12.6833333,2.08979592 C13.05,0.848979592 14.2,0 15.5166667,0 L20.6833333,0 L20.6833333,15.9183673 L15.5166667,15.9183673 L15.5166667,6.51428571 L15.15,6.51428571 L12.1833333,15.9183673 L8.5,15.9183673 L5.53333333,6.51428571 L5.16666667,6.51428571 L5.16666667,15.9183673 L0,15.9183673 L0,0 L5.16666667,0 C6.48333333,0 7.63333333,0.848979592 8,2.08979592" id="Path" fill="#006848"></path>
                        </g>
                    </g>
                </g>
            </g>
        </g>
    </g>
</svg>
