<?xml version="1.0" encoding="UTF-8"?>
<svg width="193px" height="26px" viewBox="0 0 193 26" version="1.1" xmlns="http://www.w3.org/2000/svg" xmlns:xlink="http://www.w3.org/1999/xlink">
    <g id="Page-1" stroke="none" stroke-width="1" fill="none" fill-rule="evenodd">
        <g id="logo" transform="translate(-4.000000, -15.000000)">
            <path d="M125.384615,39 L123.480769,34.5789474 L109.519231,34.5789474 L107.615385,39 L100,39 L110.788462,15 L122.211538,15 L133,39 L125.384615,39 Z M120.942308,28.8947368 L116.5,19.4210526 L112.057692,28.8947368 L120.942308,28.8947368 Z" id="А" fill="#000000" fill-rule="nonzero"></path>
            <polygon id="Е" fill="#000000" fill-rule="nonzero" points="37 15 63 15 59.9047619 21.3157895 43.1904762 21.3157895 43.1904762 24.4736842 59.2857143 24.4736842 59.2857143 29.5263158 43.1904762 29.5263158 43.1904762 32.6842105 59.9047619 32.6842105 63 39 37 39"></polygon>
            <g id="Group-2" transform="translate(64.000000, 15.000000)" fill="#F21827" fill-rule="nonzero">
                <polygon id="Path-Copy-2" points="14.3207547 15.1756274 22.3670188 15.1578947 23.6603774 17.6842105 10.5849057 17.6842105 7.47169811 12 10.5849057 6.31578947 30.5180194 6.31578947 33 0 6.22641509 0 -5.75137422e-13 12 6.22641509 24 32.3773585 24 26.7735849 9.47368421 11.8301887 9.47368421"></polygon>
            </g>
            <path d="M10.75,32.6842105 L10.75,39 L4,39 L4,15 L21.1818182,15 C26.7045455,15 31,15.6315789 31,23.8421053 C31,32.0526316 26.7045455,32.6842105 21.1818182,32.6842105 L10.75,32.6842105 Z M10.75,26.3684211 L21.8568182,26.3684211 C23.6363636,26.3684211 24.8636364,26.3684211 24.8636364,23.8421053 C24.8636364,21.3157895 23.6363636,21.3157895 21.8568182,21.3157895 L10.75,21.3157895 L10.75,26.3684211 Z" id="Р" fill="#000000" fill-rule="nonzero"></path>
            <path d="M143.75,32.6842105 L143.75,39 L137,39 L137,15 L154.181818,15 C159.704545,15 164,15.6315789 164,23.8421053 C164,32.0526316 159.704545,32.6842105 154.181818,32.6842105 L143.75,32.6842105 Z M143.75,26.3684211 L154.856818,26.3684211 C156.636364,26.3684211 157.863636,26.3684211 157.863636,23.8421053 C157.863636,21.3157895 156.636364,21.3157895 154.856818,21.3157895 L143.75,21.3157895 L143.75,26.3684211 Z" id="Р-Copy" fill="#000000" fill-rule="nonzero"></path>
            <path d="M169.451481,32.3333333 C169.819203,31.4872974 170.871295,28.4746167 171.259448,25.7714286 C171.647602,23.0682405 171.902962,19.9730407 171.902962,15 L194.548519,15 L194.548519,32.3333333 L197,32.3333333 L197,41 L190.871297,41 L190.871297,38.5238095 L173.128703,38.5238095 L173.128703,41 L167,41 L167,32.3333333 L169.451481,32.3333333 Z M188.45046,32.3333333 L188.45046,21.1904762 L177.388151,21.1904762 C177.388151,24.0381095 177.200606,25.3612224 176.924097,27.4510501 C176.647588,29.5408777 176.13177,30.9714218 175.580184,32.3333333 L188.45046,32.3333333 Z" id="Д" fill="#000000" fill-rule="nonzero"></path>
            <rect id="Rectangle" x="0" y="0" width="200" height="56"></rect>
        </g>
    </g>
</svg>